<?xml version="1.0" encoding="iso-8859-1"?>
<svg xmlns="http://www.w3.org/2000/svg" xmlns:xlink="http://www.w3.org/1999/xlink" version="1.1" viewBox="0 0 463 463" enable-background="new 0 0 463 463" width="512px" height="512px">
  <path d="m367.298,231.466c38.065-32.208 81.939-85.865 64.705-115.716-8.289-14.358-29.526-20.561-61.433-17.933-21.903,1.803-47.911,7.719-71.19,16.079-8.86-49.069-33.392-113.896-67.862-113.896-16.741,0-32.243,14.76-46.073,43.87-9.45,19.891-17.408,45.553-21.841,70.06-46.926-16.863-115.336-28.031-132.57,1.82-17.491,30.294 28.295,84.896 64.66,115.746-14.276,12.108-28.723,26.801-40.402,41.43-17.782,22.274-36.426,53.25-24.258,74.325 7.049,12.209 23.467,18.521 47.84,18.521 4.22,0 8.679-0.189 13.367-0.57 21.931-1.78 48.047-7.709 71.416-16.1 8.858,49.069 33.391,113.898 67.861,113.898 16.721,0 32.204-14.724 46.022-43.763 9.469-19.898 17.45-45.614 21.892-70.169 25.728,9.246 57.906,16.783 84.578,16.782 21.974-0.001 40.207-5.116 47.992-18.6 17.494-30.298-28.356-84.958-64.704-115.784zm4.503-118.699c24.973-2.055 42.178,1.766 47.211,10.483 6.015,10.417-2.58,31.9-22.991,57.466-18.353,22.989-44.837,46.935-64.405,58.233-25.523,14.736-52.343,8.726-70.479,0.991l-14.619-8.44 66.469-38.375c2.684,2.369 5.885,4.121 9.444,5.075 2.025,0.542 4.079,0.811 6.12,0.811 4.072,0 8.092-1.068 11.714-3.159l6.927-4c11.222-6.479 15.08-20.879 8.602-32.102-6.479-11.223-20.88-15.081-32.102-8.602 0,0-0.001,0-0.001,0l-6.927,4c-5.437,3.139-9.325,8.206-10.95,14.27-0.954,3.562-1.053,7.215-0.342,10.725l-11.154,6.44c5.321-10.911 8.702-23.659 8.702-38.046 0-5.634-0.456-12.257-1.337-19.517 22.764-8.467 48.58-14.48 70.118-16.253zm-140.283,222.233c4.687,0 8.5,3.813 8.5,8.5v8c0,4.687-3.813,8.5-8.5,8.5s-8.5-3.813-8.5-8.5v-8c0-4.687 3.813-8.5 8.5-8.5zm0-207c-4.687,0-8.5-3.813-8.5-8.5v-8c0-4.687 3.813-8.5 8.5-8.5s8.5,3.813 8.5,8.5v8c0,4.687-3.813,8.5-8.5,8.5zm89.634,51.75c-1.136-1.966-1.438-4.256-0.85-6.449 0.588-2.193 1.994-4.026 3.962-5.162l6.928-4c4.061-2.343 9.269-0.946 11.61,3.111 2.343,4.06 0.947,9.269-3.112,11.612l-6.927,4c-1.966,1.135-4.257,1.437-6.45,0.849-2.193-0.588-4.025-1.995-5.161-3.961zm-89.634-164.75c12.028,0 26.336,18.185 38.271,48.644 10.732,27.389 18.229,62.298 18.229,84.894 0,29.946-17.597,51.324-34.079,61.358l-14.921,8.615v-76.744c9.29-3.138 16-11.93 16-22.266v-8c0-12.958-10.542-23.5-23.5-23.5s-23.5,10.542-23.5,23.5v8c0,10.336 6.71,19.128 16,22.266v12.766c-6.779-9.95-16.122-19.232-28.598-26.434-4.88-2.817-10.845-5.735-17.576-8.602 8.499-50.29 32.568-104.497 53.674-104.497zm-187.494,108.25c6.015-10.417 28.915-13.715 61.263-8.822 29.085,4.399 63.065,15.363 82.634,26.66 26.644,15.383 36.098,41.975 36.098,60.073v17.349l-66.453-38.366c0.711-3.511 0.612-7.164-0.342-10.725-1.625-6.063-5.514-11.131-10.949-14.269l-6.928-4c0,0-0.001,0-0.001,0-11.223-6.478-25.622-2.621-32.102,8.602-6.479,11.222-2.62,25.623 8.601,32.101l6.929,4c3.621,2.091 7.64,3.159 11.712,3.159 2.041,0 4.097-0.269 6.121-0.811 3.559-0.954 6.76-2.706 9.444-5.075l10.999,6.351c-12.006,0.902-24.662,4.388-37.129,11.585-5.129,2.961-10.62,6.653-16.274,10.885-39.185-32.438-74.133-80.493-63.623-98.697zm97.861,56.498c0,0.001-0.001,0.001-0.001,0.002 0,0.001-0.001,0.001-0.001,0.002-1.136,1.965-2.967,3.371-5.16,3.958-2.192,0.588-4.483,0.286-6.449-0.849l-6.929-4c-4.059-2.343-5.454-7.552-3.111-11.611 1.572-2.724 4.436-4.249 7.376-4.249 1.44,0 2.899,0.366 4.234,1.137l6.929,4c1.967,1.135 3.373,2.968 3.961,5.162 0.587,2.192 0.286,4.482-0.849,6.448zm-97.861,160.002c-6.015-10.417 2.58-31.9 22.99-57.466 18.354-22.989 44.838-46.935 64.406-58.233 26.271-15.167 53.455-10.56 70.138-1.188l14.96,8.637-66.463,38.372c-7.363-6.477-18.333-7.892-27.283-2.724 0,0-0.001,0-0.001,0l-6.927,4c-11.222,6.479-15.08,20.88-8.602,32.102 3.139,5.436 8.206,9.324 14.27,10.949 2.024,0.542 4.079,0.811 6.12,0.811 4.072,0 8.092-1.068 11.713-3.159l6.927-4c5.437-3.139 9.325-8.206 10.949-14.27 0.954-3.561 1.054-7.214 0.343-10.725l11.043-6.376c-5.225,10.844-8.591,23.576-8.591,37.982 0,5.635 0.456,12.26 1.338,19.522-47.85,17.815-106.754,24.081-117.33,5.766zm98.71-50.05c-0.588,2.193-1.994,4.026-3.962,5.162l-6.927,4c-1.967,1.136-4.258,1.437-6.45,0.849-2.193-0.587-4.026-1.994-5.161-3.96-2.343-4.059-0.947-9.268 3.112-11.612l6.928-4c4.061-2.343 9.269-0.946 11.61,3.112 1.135,1.965 1.437,4.256 0.85,6.449zm88.784,158.3c-12.028,0-26.336-18.185-38.271-48.644-10.732-27.389-18.229-62.298-18.229-84.894 0-30.768 18.294-52.245 33.964-61.292l15.036-8.681v76.744c-9.29,3.138-16,11.93-16,22.266v8c0,12.958 10.542,23.5 23.5,23.5s23.5-10.542 23.5-23.5v-8c0-10.336-6.71-19.128-16-22.266v-12.766c6.779,9.95 16.122,19.232 28.598,26.434 4.878,2.816 10.848,5.732 17.575,8.598-8.496,50.251-32.593,104.501-53.673,104.501zm187.494-108.25c-6.015,10.417-28.916,13.715-61.263,8.822-29.085-4.399-63.065-15.363-82.634-26.66-24.936-14.397-36.098-40.545-36.098-60.073v-17.349l66.453,38.366c-0.711,3.511-0.612,7.164 0.342,10.725 1.625,6.063 5.514,11.131 10.949,14.269l6.929,4c3.621,2.09 7.64,3.158 11.711,3.158 2.042,0 4.097-0.268 6.121-0.811 6.063-1.625 11.131-5.513 14.27-10.949 6.479-11.222 2.62-25.622-8.601-32.101l-6.928-4c0,0-0.001,0-0.001,0-8.952-5.167-19.92-3.753-27.283,2.723l-11.992-6.924c12.313-0.475 25.29-3.597 38.128-11.009 4.879-2.817 10.387-6.523 16.235-10.917 39.187,32.43 74.17,80.529 63.662,98.73zm-97.86-56.5c1.572-2.724 4.436-4.249 7.376-4.249 1.44,0 2.899,0.366 4.234,1.137l6.929,4c4.059,2.344 5.454,7.553 3.111,11.611-1.135,1.966-2.968,3.373-5.161,3.96-2.193,0.588-4.485,0.286-6.449-0.848l-6.929-4c-1.967-1.135-3.373-2.968-3.961-5.162-0.588-2.192-0.286-4.483 0.85-6.449z" fill="#FFFFFF"/>
</svg>
