<?xml version="1.0"?>
<svg xmlns="http://www.w3.org/2000/svg" xmlns:xlink="http://www.w3.org/1999/xlink" version="1.1" id="Layer_1" x="0px" y="0px" viewBox="0 0 512.001 512.001" style="enable-background:new 0 0 512.001 512.001;" xml:space="preserve" width="512px" height="512px" class=""><g><circle style="fill:#FFE670" cx="256" cy="256" r="256" data-original="#FFE670" class="active-path" data-old_color="#00FFE2"/><path style="fill:#FF8C00" d="M512,256c0-3.487-0.09-6.952-0.228-10.405l-79.069-79.069c0,0-30.343-0.325-66.857,6.999L256,63.5  c0,0-56.906,55.697-75.422,119.081c-49.622-16.609-101.282-16.055-101.282-16.055s-0.457,42.689,11.937,87.73  c-41.467,12.611-73.886,32.348-73.886,32.348s21.344,36.815,54.913,69.168c0,0,101.096,101.147,154.519,154.559  c9.591,1.09,19.337,1.67,29.22,1.67C397.385,512,512,397.385,512,256z" data-original="#FDC000" class="" data-old_color="#ff8c00"/><path style="fill:#00A753;" d="M256,321.434c-48.074-150.869-238.653-34.83-238.653-34.83S137.482,493.825,256,357.04  c118.518,136.785,238.652-70.436,238.652-70.436S304.074,170.566,256,321.434z" data-original="#00A753" class=""/><path style="fill:#008C49;" d="M494.65,286.6c0,0-120.13,207.23-238.65,70.44v-35.61c15.19-47.66,44.6-68.68,77.73-75.13  C405.46,232.3,494.65,286.6,494.65,286.6z" data-original="#008C49" class=""/><path style="fill:#FF0080" d="M256,63.5c0,0-182.639,178.738,0,260.219C438.639,242.238,256,63.5,256,63.5z" data-original="#FF3200" class="" data-old_color="#FF3200"/><path style="fill:#EF0078" d="M333.73,246.3c-7.98,29.11-30.79,56.48-77.73,77.42V63.5C256,63.5,356.82,162.16,333.73,246.3z" data-original="#ED2700" class="" data-old_color="#EF0079"/><path style="fill:#EF0078" d="M432.703,166.526c0,0-132.053-1.421-176.703,68.162c-44.65-69.582-176.704-68.162-176.704-68.162  S76.644,412.976,256,346.342C435.356,412.976,432.703,166.526,432.703,166.526z" data-original="#FF4F19" class="" data-old_color="#FF4F19"/><path style="fill:#FF0080" d="M256,346.34V234.69c44.65-69.58,176.7-68.16,176.7-68.16S435.36,412.98,256,346.34z" data-original="#FF3200" class="" data-old_color="#FF3200"/></g> </svg>
